<?xml version="1.0" encoding="utf-8"?>
<!-- Generator: Adobe Illustrator 26.2.1, SVG Export Plug-In . SVG Version: 6.00 Build 0)  -->
<svg version="1.1" xmlns="http://www.w3.org/2000/svg" xmlns:xlink="http://www.w3.org/1999/xlink" x="0px" y="0px"
	 viewBox="0 0 177 32" style="enable-background:new 0 0 177 32;" xml:space="preserve">
<style type="text/css">
	.st0{fill:#FF5715;}
	.st1{fill:#FFFFFF;}
	.st2{fill:#008EDD;}
</style>
<g id="Layer_2">
</g>
<g id="Layer_1">
	<g>
		<g>
			<ellipse class="st0" cx="16.16" cy="16" rx="16.16" ry="16"/>
			<g>
				<g>
					<path class="st1" d="M16.09,26.67c-3.12,0-5.98-2.07-7.11-5.16c-0.18-0.5,0.05-1.06,0.53-1.26c0.47-0.19,1.01,0.05,1.19,0.56
						c0.86,2.34,3.03,3.91,5.4,3.91c0,0,0,0,0.01,0c2.37,0,4.53-1.58,5.39-3.91c0.18-0.5,0.72-0.75,1.19-0.56
						c0.47,0.19,0.71,0.76,0.53,1.26C22.08,24.59,19.22,26.66,16.09,26.67C16.1,26.67,16.1,26.67,16.09,26.67z"/>
				</g>
				<path class="st1" d="M23.31,17.24c0.2,0.18,0.63,0.4,1.51,0.44V8.35c-0.69,0.05-1.73,0.26-1.73,0.82V9.9l-0.48-0.55
					c-0.27-0.31-0.59-0.56-0.95-0.76c-0.54-0.3-1.18-0.45-1.89-0.45c-0.84,0-1.61,0.22-2.29,0.65c-0.09,0.06-0.18,0.12-0.26,0.18
					c-0.07,0.05-0.08,0.14-0.03,0.21c0.17,0.23,0.32,0.46,0.45,0.71c0.09,0.17,0.18,0.35,0.25,0.52c0.02,0.05,0.06,0.08,0.11,0.09
					c0.03,0.01,0.08,0.01,0.12-0.03c0.13-0.11,0.27-0.22,0.42-0.31c0.46-0.28,1-0.42,1.6-0.42c0.61,0,1.16,0.14,1.62,0.42
					c0.46,0.28,0.83,0.67,1.09,1.17c0.25,0.49,0.38,1.06,0.38,1.69c0,0.95-0.29,1.74-0.85,2.35c-0.57,0.62-1.32,0.93-2.24,0.93
					c-0.6,0-1.14-0.14-1.6-0.42c-0.18-0.11-0.35-0.24-0.5-0.38l-0.11-0.12c-0.03-0.03-0.06-0.06-0.09-0.1
					c-0.71-0.77-0.74-1.29-0.77-1.99c0.03-0.44-0.09-1.84-0.94-3.19c-0.61-0.96-1.42-1.41-1.98-1.67c-0.51-0.21-1.05-0.31-1.6-0.29
					c-0.71,0-1.35,0.15-1.9,0.45c-0.36,0.2-0.68,0.45-0.94,0.75L9.23,9.88l0-0.73c0,0-0.01-0.18-0.22-0.36
					C8.81,8.6,8.38,8.38,7.5,8.34v9.34c0.69-0.05,1.73-0.26,1.73-0.82v-0.73l0.48,0.55c0.27,0.31,0.59,0.56,0.95,0.76
					c0.54,0.3,1.18,0.45,1.89,0.45c0.84,0,1.61-0.22,2.28-0.65c0.09-0.06,0.18-0.12,0.27-0.19c0.06-0.04,0.07-0.13,0.03-0.19
					c-0.17-0.23-0.32-0.47-0.46-0.72c-0.09-0.17-0.18-0.35-0.26-0.54c-0.02-0.04-0.05-0.07-0.1-0.08c-0.02-0.01-0.07-0.01-0.11,0.03
					c-0.13,0.12-0.28,0.23-0.43,0.32c-0.46,0.28-1,0.42-1.6,0.42c-0.61,0-1.16-0.14-1.62-0.42c-0.46-0.28-0.83-0.67-1.09-1.17
					c-0.25-0.49-0.38-1.06-0.38-1.69c0-0.95,0.29-1.74,0.85-2.35c0.57-0.62,1.32-0.93,2.24-0.93c0.6,0,1.14,0.14,1.6,0.42
					c0.26,0.16,0.5,0.36,0.7,0.59c0.86,1.16,0.89,1.9,0.92,2.62l0,0.09c0.04,0.93,0.08,1.98,1.48,3.33
					c0.08,0.08,0.17,0.16,0.27,0.23c0.11,0.09,0.23,0.17,0.34,0.25c0.68,0.42,1.45,0.64,2.29,0.64c0.71,0,1.35-0.15,1.9-0.45
					c0.36-0.2,0.68-0.45,0.94-0.75l0.48-0.55l0,0.73C23.09,16.88,23.11,17.05,23.31,17.24z"/>
			</g>
		</g>
		<g>
			<path class="st0" d="M47.16,11.36c1.49,0.33,3.28-1.48,3.28-1.48c-0.49-0.56-1.03-0.97-1.6-1.22c-0.57-0.25-1.22-0.38-1.93-0.38
				c-1.62,0-2.83,0.55-3.63,1.64c-0.03,0.04-0.05,0.08-0.07,0.11c0,0,0.01-1.46-3.26-1.46V20.7v0c0,0-0.02,1.79,3.26,1.79v-7.75
				c0-1.2,0.3-2.08,0.89-2.64c0.59-0.56,1.34-0.84,2.25-0.84C46.65,11.27,46.91,11.3,47.16,11.36L47.16,11.36z"/>
			<path class="st0" d="M61.37,9.82v6.4c0,1.02-0.25,1.81-0.76,2.36c-0.5,0.55-1.23,0.83-2.18,0.83c-0.61,0-1.14-0.13-1.59-0.38
				c-0.44-0.25-0.78-0.61-1.01-1.09c-0.23-0.47-0.34-1.05-0.34-1.73v-6.4c0-1.54-3.26-1.54-3.26-1.54v8.09
				c0,1.2,0.26,2.26,0.79,3.18c0.52,0.92,1.25,1.64,2.19,2.16c0.94,0.52,2.01,0.78,3.22,0.78c1.22,0,2.3-0.26,3.23-0.77
				c0.93-0.51,1.65-1.23,2.18-2.15c0.52-0.92,0.79-1.99,0.79-3.21V8.28C61.34,8.28,61.37,9.82,61.37,9.82z"/>
			<path class="st0" d="M80.89,11.57c-0.6-1.09-1.42-1.96-2.46-2.61c-1.04-0.65-2.2-0.97-3.48-0.97c-1.07,0-2.03,0.23-2.87,0.68
				C71.5,8.98,71,9.37,70.59,9.83c0-1.55-3.26-1.55-3.26-1.55v17.49c0,0,0.02,2.23,3.26,2.23v-7.33c0.4,0.45,0.89,0.83,1.45,1.13
				c0.85,0.45,1.82,0.68,2.9,0.68c1.28,0,2.44-0.32,3.48-0.96c1.04-0.64,1.86-1.5,2.46-2.6c0.6-1.09,0.9-2.32,0.9-3.67
				C81.79,13.9,81.49,12.66,80.89,11.57z M77.92,17.45c-0.35,0.64-0.82,1.14-1.42,1.49c-0.6,0.36-1.3,0.54-2.09,0.54
				c-0.79,0-1.49-0.18-2.1-0.54c-0.61-0.36-1.09-0.86-1.42-1.49c-0.34-0.64-0.5-1.37-0.5-2.2c0-0.83,0.17-1.57,0.5-2.2
				c0.34-0.64,0.81-1.14,1.42-1.49c0.61-0.36,1.31-0.54,2.1-0.54c0.79,0,1.49,0.18,2.09,0.54c0.6,0.36,1.08,0.86,1.42,1.49
				c0.35,0.64,0.52,1.37,0.52,2.2C78.44,16.07,78.27,16.81,77.92,17.45z"/>
			<path class="st0" d="M94.8,9.83c-0.41-0.46-0.9-0.85-1.47-1.16c-0.84-0.45-1.8-0.68-2.89-0.68c-1.28,0-2.44,0.32-3.48,0.97
				c-1.04,0.65-1.86,1.52-2.46,2.61c-0.6,1.09-0.9,2.33-0.9,3.7c0,1.35,0.3,2.58,0.9,3.67c0.6,1.09,1.42,1.96,2.46,2.6
				c1.04,0.64,2.2,0.96,3.48,0.96c1.09,0,2.05-0.23,2.9-0.68c0.57-0.3,1.05-0.68,1.45-1.13c0,0,0,1.53,3.26,1.53V8.28
				C98.06,8.28,94.8,8.29,94.8,9.83z M93.9,18.29c-0.74,0.79-1.71,1.19-2.92,1.19c-0.79,0-1.49-0.18-2.09-0.54
				c-0.6-0.36-1.08-0.86-1.42-1.49c-0.35-0.64-0.52-1.37-0.52-2.2c0-0.83,0.17-1.57,0.52-2.2c0.35-0.64,0.82-1.14,1.42-1.49
				c0.6-0.36,1.3-0.54,2.09-0.54c0.81,0,1.52,0.18,2.12,0.54c0.6,0.36,1.07,0.86,1.41,1.49c0.34,0.64,0.5,1.37,0.5,2.2
				C95.01,16.48,94.64,17.49,93.9,18.29z"/>
			<path class="st2" d="M108.9,11.36c1.49,0.33,3.28-1.48,3.28-1.48c-0.49-0.56-1.03-0.97-1.6-1.22c-0.57-0.25-1.22-0.38-1.93-0.38
				c-1.62,0-2.83,0.55-3.63,1.64c-0.03,0.04-0.05,0.08-0.07,0.11c0,0,0.01-1.46-3.26-1.46V20.7v0c0,0-0.02,1.79,3.26,1.79v-7.75
				c0-1.2,0.3-2.08,0.89-2.64c0.59-0.56,1.34-0.84,2.25-0.84C108.39,11.27,108.65,11.3,108.9,11.36L108.9,11.36z"/>
			<path class="st2" d="M123.11,9.82v6.4c0,1.02-0.25,1.81-0.76,2.36c-0.5,0.55-1.23,0.83-2.18,0.83c-0.61,0-1.14-0.13-1.59-0.38
				c-0.44-0.25-0.78-0.61-1.01-1.09c-0.23-0.47-0.34-1.05-0.34-1.73v-6.4c0-1.54-3.26-1.54-3.26-1.54v8.09
				c0,1.2,0.26,2.26,0.79,3.18c0.52,0.92,1.25,1.64,2.19,2.16c0.94,0.52,2.01,0.78,3.22,0.78c1.22,0,2.3-0.26,3.23-0.77
				c0.93-0.51,1.65-1.23,2.18-2.15c0.52-0.92,0.79-1.99,0.79-3.21V8.28C123.08,8.28,123.11,9.82,123.11,9.82z"/>
			<path class="st2" d="M142.63,11.57c-0.6-1.09-1.42-1.96-2.46-2.61c-1.04-0.65-2.2-0.97-3.48-0.97c-1.07,0-2.03,0.23-2.87,0.68
				c-0.58,0.31-1.07,0.7-1.48,1.16c0-1.55-3.26-1.55-3.26-1.55v17.49c0,0,0.02,2.23,3.26,2.23v-7.33c0.4,0.45,0.89,0.83,1.45,1.13
				c0.85,0.45,1.82,0.68,2.9,0.68c1.28,0,2.44-0.32,3.48-0.96c1.04-0.64,1.86-1.5,2.46-2.6c0.6-1.09,0.9-2.32,0.9-3.67
				C143.53,13.9,143.23,12.66,142.63,11.57z M139.67,17.45c-0.35,0.64-0.82,1.14-1.42,1.49c-0.6,0.36-1.3,0.54-2.09,0.54
				c-0.79,0-1.49-0.18-2.1-0.54c-0.61-0.36-1.09-0.86-1.42-1.49c-0.34-0.64-0.5-1.37-0.5-2.2c0-0.83,0.17-1.57,0.5-2.2
				c0.34-0.64,0.81-1.14,1.42-1.49c0.61-0.36,1.31-0.54,2.1-0.54c0.79,0,1.49,0.18,2.09,0.54c0.6,0.36,1.08,0.86,1.42,1.49
				c0.35,0.64,0.52,1.37,0.52,2.2C140.18,16.07,140.01,16.81,139.67,17.45z"/>
			<path class="st2" d="M156.54,9.83c-0.41-0.46-0.9-0.85-1.47-1.16c-0.84-0.45-1.8-0.68-2.89-0.68c-1.28,0-2.44,0.32-3.48,0.97
				c-1.04,0.65-1.86,1.52-2.46,2.61c-0.6,1.09-0.9,2.33-0.9,3.7c0,1.35,0.3,2.58,0.9,3.67c0.6,1.09,1.42,1.96,2.46,2.6
				c1.04,0.64,2.2,0.96,3.48,0.96c1.09,0,2.05-0.23,2.9-0.68c0.57-0.3,1.05-0.68,1.45-1.13c0,0,0,1.53,3.26,1.53V8.28
				C159.8,8.28,156.54,8.29,156.54,9.83z M155.64,18.29c-0.74,0.79-1.71,1.19-2.92,1.19c-0.79,0-1.49-0.18-2.09-0.54
				c-0.6-0.36-1.08-0.86-1.42-1.49c-0.35-0.64-0.52-1.37-0.52-2.2c0-0.83,0.17-1.57,0.52-2.2c0.35-0.64,0.82-1.14,1.42-1.49
				c0.6-0.36,1.3-0.54,2.09-0.54c0.81,0,1.52,0.18,2.12,0.54c0.6,0.36,1.07,0.86,1.41,1.49c0.34,0.64,0.5,1.37,0.5,2.2
				C156.75,16.48,156.38,17.49,155.64,18.29z"/>
		</g>
	</g>
</g>
</svg>
